<?xml version="1.0" encoding="UTF-8" standalone="no"?>
<!DOCTYPE svg PUBLIC "-//W3C//DTD SVG 1.1//EN" "http://www.w3.org/Graphics/SVG/1.1/DTD/svg11.dtd">
<svg width="100%" height="100%" viewBox="0 0 256 256" version="1.1" xmlns="http://www.w3.org/2000/svg" xmlns:xlink="http://www.w3.org/1999/xlink" xml:space="preserve" xmlns:serif="http://www.serif.com/" style="fill-rule:evenodd;clip-rule:evenodd;stroke-linejoin:round;stroke-miterlimit:2;">
    <rect x="0" y="0" width="256" height="256" style="fill:#e2dbc5;"/>
    <path d="M256,0l0,256l-256,0l0,-256l256,0Zm-12,12c-0,0 -232,0 -232,-0l-0,232c42.988,-0 189.012,0 232,0l-0,-232Z"/>
    <g>
        <path d="M135.5,81.078l0,15l-15,0l0,-14.968l15,-0.032Z" style="fill-rule:nonzero;"/>
        <path d="M39.158,57.075l3.525,1.114l1.958,2.936l0,6.885c0,2.734 -0.636,4.101 -1.909,4.101c-1.306,-0 -1.959,-1.367 -1.959,-4.101c-0.032,-1.384 -0.049,-2.835 -0.049,-4.354l0,-4.961l-10.429,-0c-2.252,-0 -3.378,2.227 -3.378,6.682c-0,4.489 -0.653,6.734 -1.959,6.734c-1.305,-0 -1.958,-5.485 -1.958,-16.454c0,-10.968 1.942,-16.453 5.827,-16.453l10.82,0l5.484,4.759l0,8.606l-4.749,4.05c-2.71,0.27 -3.118,0.422 -1.224,0.456Zm-8.373,-2.278l6.757,-0l3.672,-3.493l0,-5.367l-3.623,-2.835l-6.806,0c-2.579,0 -3.868,1.941 -3.868,5.822c-0,3.915 1.289,5.873 3.868,5.873Z" style="fill:#0d0d0c;fill-rule:nonzero;"/>
        <path d="M70.151,63.96c1.24,-0 1.648,1.282 1.224,3.847l-5.141,4.81l-7.687,-0l-5.337,-3.341l-2.987,-5.974l0,-7.594l2.889,-6.024l5.239,-3.392l8.715,-0l5.337,7.34c-0.196,4.59 -3.28,6.885 -9.254,6.885c-6.006,0 -8.895,1.232 -8.666,3.696l4.211,4.506l8.176,-0c0.914,-3.173 2.008,-4.759 3.281,-4.759Zm-11.457,-13.77l-3.575,3.544c-0.489,2.092 1.551,3.138 6.121,3.138c4.57,0 6.789,-1.08 6.659,-3.24l-3.379,-3.442l-5.826,-0Z" style="fill:#0d0d0c;fill-rule:nonzero;"/>
        <path d="M98.549,67.251l-5.729,5.366l-7.442,-0l-5.19,-3.19l-3.036,-5.973l0,-7.898l3.036,-6.024l5.19,-3.24l7.394,-0l5.728,5.366c0.392,3.071 0,4.607 -1.175,4.607c-1.208,-0 -2.105,-0.996 -2.693,-2.987l-3.378,-3.088l-4.75,-0l-3.427,2.227l-2.008,4.202l0,5.772l2.008,4.151l3.427,2.177l4.799,-0l3.378,-3.088c0.588,-2.025 1.469,-3.038 2.644,-3.038c1.175,0 1.583,1.553 1.224,4.658Z" style="fill:#0d0d0c;fill-rule:nonzero;"/>
        <path d="M124.01,63.96c1.24,-0 1.648,1.282 1.224,3.847l-5.141,4.81l-7.688,-0l-5.336,-3.341l-2.987,-5.974l-0,-7.594l2.889,-6.024l5.239,-3.392l8.715,-0l5.337,7.34c-0.196,4.59 -3.281,6.885 -9.254,6.885c-6.006,0 -8.895,1.232 -8.666,3.696l4.21,4.506l8.177,-0c0.914,-3.173 2.008,-4.759 3.281,-4.759Zm-11.458,-13.77l-3.574,3.544c-0.49,2.092 1.551,3.138 6.12,3.138c4.57,0 6.79,-1.08 6.659,-3.24l-3.378,-3.442l-5.827,-0Z" style="fill:#0d0d0c;fill-rule:nonzero;"/>
        <path d="M146.826,50.595c-3.231,-0 -4.847,2.143 -4.847,6.429l-0,9.163l2.35,2.177c0.685,-0.033 1.42,-0.05 2.203,-0.05l2.497,-0c1.73,-0 2.595,0.624 2.595,1.873c0,1.282 -0.865,1.924 -2.595,1.924l-6.512,-0l-4.455,-4.253l-0,-10.834c-0,-4.286 -1.028,-6.429 -3.085,-6.429c-2.089,-0 -3.133,-0.641 -3.133,-1.924c-0,-1.249 1.044,-1.873 3.133,-1.873c2.057,-0 3.085,-1.097 3.085,-3.291c-0,-2.193 0.653,-3.29 1.958,-3.29c1.306,-0 1.959,1.097 1.959,3.29c-0,2.194 1.616,3.291 4.847,3.291c3.199,-0 4.798,0.624 4.798,1.873c0,1.283 -1.599,1.924 -4.798,1.924Z" style="fill:#0d0d0c;fill-rule:nonzero;"/>
        <path d="M173.755,50.595c-3.231,-0 -4.847,2.143 -4.847,6.429l0,9.163l2.35,2.177c0.686,-0.033 1.42,-0.05 2.204,-0.05l2.497,-0c1.73,-0 2.595,0.624 2.595,1.873c-0,1.282 -0.865,1.924 -2.595,1.924l-6.512,-0l-4.456,-4.253l0,-10.834c0,-4.286 -1.028,-6.429 -3.084,-6.429c-2.09,-0 -3.134,-0.641 -3.134,-1.924c-0,-1.249 1.044,-1.873 3.134,-1.873c2.056,-0 3.084,-1.097 3.084,-3.291c0,-2.193 0.653,-3.29 1.959,-3.29c1.305,-0 1.958,1.097 1.958,3.29c0,2.194 1.616,3.291 4.847,3.291c3.199,-0 4.799,0.624 4.799,1.873c-0,1.283 -1.6,1.924 -4.799,1.924Z" style="fill:#0d0d0c;fill-rule:nonzero;"/>
        <path d="M204.798,63.96c1.24,-0 1.648,1.282 1.224,3.847l-5.141,4.81l-7.687,-0l-5.337,-3.341l-2.987,-5.974l-0,-7.594l2.889,-6.024l5.239,-3.392l8.715,-0l5.337,7.34c-0.196,4.59 -3.281,6.885 -9.254,6.885c-6.006,0 -8.895,1.232 -8.666,3.696l4.21,4.506l8.177,-0c0.914,-3.173 2.008,-4.759 3.281,-4.759Zm-11.458,-13.77l-3.574,3.544c-0.489,2.092 1.551,3.138 6.12,3.138c4.57,0 6.79,-1.08 6.659,-3.24l-3.378,-3.442l-5.827,-0Z" style="fill:#0d0d0c;fill-rule:nonzero;"/>
        <path d="M214.394,63.96c1.175,-0 1.942,0.692 2.302,2.076l4.014,2.733l6.023,0l2.35,-1.721l0,-3.341l-2.252,-1.62c-1.143,-0.203 -2.383,-0.422 -3.721,-0.658c-1.339,-0.27 -2.775,-0.54 -4.309,-0.81l-4.798,-3.595l-0,-6.632l4.749,-4.1l7.883,-0l4.847,4.354c0.065,2.531 -0.473,3.796 -1.616,3.796c-1.175,0 -1.974,-1.383 -2.399,-4.151l-7.001,0l-2.546,1.721l-0,3.139l2.741,1.772c1.176,0.236 2.432,0.489 3.771,0.759c1.371,0.27 2.823,0.54 4.357,0.81l4.211,3.392l0,6.885l-4.554,3.848l-8.519,-0l-5.386,-3.24l-2.105,-4.101c0.098,-0.877 0.751,-1.316 1.958,-1.316Z" style="fill:#0d0d0c;fill-rule:nonzero;"/>
        <path d="M175.143,106.796c-3.929,-0 -31.429,6.875 -31.429,37.812l0,24.063c0,7.584 7.047,13.75 15.715,13.75l7.857,-0l-0,27.5c-0,3.802 3.511,6.875 7.857,6.875c4.346,-0 7.857,-3.073 7.857,-6.875l0,-96.25c0,-3.803 -3.511,-6.875 -7.857,-6.875Zm-86.429,3.437c0,-1.761 -1.497,-3.222 -3.511,-3.416c-2.013,-0.193 -3.806,0.967 -4.248,2.664l-7.439,29.284c-0.344,1.353 -0.516,2.728 -0.516,4.103c0,9.861 8.618,17.961 19.643,18.842l-0,48.211c-0,3.802 3.511,6.875 7.857,6.875c4.346,-0 7.857,-3.073 7.857,-6.875l0,-48.211c11.025,-0.881 19.643,-8.981 19.643,-18.842c0,-1.375 -0.172,-2.75 -0.516,-4.103l-7.439,-29.284c-0.442,-1.718 -2.284,-2.857 -4.273,-2.664c-1.989,0.194 -3.486,1.655 -3.486,3.416l-0,28.832c-0,1.16 -1.081,2.106 -2.407,2.106c-1.252,-0 -2.283,-0.838 -2.406,-1.934l-3.069,-29.305c-0.172,-1.783 -1.866,-3.136 -3.904,-3.136c-2.038,-0 -3.732,1.353 -3.904,3.136l-3.045,29.305c-0.122,1.096 -1.154,1.934 -2.406,1.934c-1.326,-0 -2.406,-0.946 -2.406,-2.106l-0.025,-28.832Zm11.86,32.657l-0.148,-0l0.074,-0.151l0.074,0.151Z" style="fill:#0d0d0c;fill-rule:nonzero;"/>
    </g>
</svg>
